<svg width="720" height="1080" viewBox="0 0 720 1080" fill="none" xmlns="http://www.w3.org/2000/svg">
  <rect width="720" height="1080" rx="48" fill="#111827"/>
  <rect width="720" height="1080" rx="48" fill="url(#paint0_linear)"/>
  <circle cx="570" cy="210" r="150" fill="#34D399" fill-opacity="0.24"/>
  <circle cx="170" cy="784" r="210" fill="#8B5CF6" fill-opacity="0.2"/>
  <rect x="104" y="138" width="512" height="714" rx="40" fill="#020617" fill-opacity="0.58" stroke="rgba(255,255,255,0.12)"/>
  <path d="M228 670C291 562 410 437 505 392C461 524 388 609 297 670H228Z" fill="#F8FAFC"/>
  <path d="M416 352C449 352 476 325 476 292C476 259 449 232 416 232C383 232 356 259 356 292C356 325 383 352 416 352Z" fill="#F8FAFC"/>
  <text x="108" y="928" fill="#F8FAFC" font-size="52" font-family="Arial, sans-serif" font-weight="700">Afterlight Run</text>
  <text x="108" y="976" fill="#CBD5E1" font-size="28" font-family="Arial, sans-serif">Every city has a secret pulse.</text>
  <defs>
    <linearGradient id="paint0_linear" x1="80" y1="92" x2="642" y2="1024" gradientUnits="userSpaceOnUse">
      <stop stop-color="#052E16"/>
      <stop offset="1" stop-color="#111827"/>
    </linearGradient>
  </defs>
</svg>
